<svg width="20" height="21" viewBox="0 0 20 21" fill="none" xmlns="http://www.w3.org/2000/svg">
<path d="M7.06165 3.49406L1.23911 8.58906C0.739798 9.02598 1.07458 9.80201 1.76238 9.80201C2.18259 9.80201 2.52324 10.1166 2.52324 10.5048V13.7483C2.52324 16.5387 2.52324 17.934 3.46176 18.8008C4.40029 19.6677 5.91082 19.6677 8.93189 19.6677H11.0681C14.0892 19.6677 15.5997 19.6677 16.5382 18.8008C17.4768 17.934 17.4768 16.5387 17.4768 13.7483V10.5048C17.4768 10.1167 17.8174 9.80201 18.2376 9.80201C18.9254 9.80201 19.2602 9.02598 18.7609 8.58906L12.9383 3.49406C11.5469 2.2765 10.8512 1.66772 10 1.66772C9.14878 1.66772 8.45307 2.2765 7.06165 3.49406Z" stroke="#EBEBEB" stroke-width="1.5" stroke-linecap="round" stroke-linejoin="round"/>
<path d="M10 14.6677H10.009" stroke="#EBEBEB" stroke-width="2" stroke-linecap="round" stroke-linejoin="round"/>
</svg>
