<svg width="24" height="29" viewBox="0 0 24 29" fill="none" xmlns="http://www.w3.org/2000/svg">
<path d="M13.4418 5.09669C12.8913 6.56326 12.5746 7.99372 12.5181 9.42574C12.4528 11.0815 12.7347 12.7469 13.4042 14.4813C14.0934 16.2674 15.241 17.7368 15.5318 19.7022C16.2444 24.5185 12.5914 28.6657 7.84826 28.6678C3.51087 28.6697 0 25.1689 0 20.7473C0 18.3511 0.972939 16.0745 2.87771 14.6044C4.80437 13.1174 7.23382 12.7988 9.52316 13.4624C9.84186 13.5547 10.1332 13.8461 10.0322 14.2076C9.93093 14.5687 9.52389 14.6648 9.20515 14.5727C7.81816 14.1705 6.52604 14.6162 5.50254 15.6342C4.3674 16.7633 3.64185 18.5271 3.64185 20.1483C3.64185 23.2857 5.9567 26.1274 9.14844 26.1274C12.3199 26.1274 14.2071 22.7582 13.9177 19.847C13.7474 18.1359 12.5686 16.5966 12.0462 14.9458C11.3582 12.7724 11.165 10.4608 11.4369 8.2088C11.7098 5.94761 12.4522 3.7423 13.6338 1.79305C14 1.18946 14.4148 0.58978 14.8055 0L15.3133 1.43544C16.2939 4.20629 17.9409 6.99919 20.0352 9.04417C21.2583 10.2385 22.5371 11.0695 23.9524 11.9734L19.4678 12.3324C18.3582 11.365 17.2948 10.3458 16.3104 9.24638C15.1276 7.92546 14.2463 6.67188 13.4418 5.09669Z" fill="url(#paint0_linear_2021_7289)"/>
<defs>
<linearGradient id="paint0_linear_2021_7289" x1="0" y1="0" x2="28.211" y2="23.5707" gradientUnits="userSpaceOnUse">
<stop stop-color="#E5313A"/>
<stop offset="1" stop-color="#CF2D34"/>
</linearGradient>
</defs>
</svg>
