<svg width="22" height="23" viewBox="0 0 22 23" fill="none" xmlns="http://www.w3.org/2000/svg">
<path d="M15.3083 3.71786C14.7173 3.71786 14.4217 3.71786 14.1525 3.61797C14.1151 3.6041 14.0783 3.58883 14.042 3.5722C13.781 3.45247 13.5721 3.24351 13.1541 2.82559C12.1922 1.86369 11.7113 1.38274 11.1195 1.3384C11.04 1.33243 10.96 1.33243 10.8805 1.3384C10.2887 1.38274 9.80775 1.86369 8.84585 2.82559C8.42793 3.24351 8.21897 3.45247 7.95797 3.5722C7.92172 3.58883 7.88486 3.6041 7.84747 3.61797C7.57825 3.71786 7.28273 3.71786 6.69171 3.71786H6.58269C5.07478 3.71786 4.32083 3.71786 3.85239 4.18631C3.38394 4.65476 3.38394 5.40871 3.38394 6.91661V7.02563C3.38394 7.61666 3.38394 7.91217 3.28405 8.18139C3.27017 8.21878 3.25491 8.25564 3.23828 8.29189C3.11855 8.55289 2.90959 8.76185 2.49166 9.17978C1.52977 10.1417 1.04882 10.6226 1.00447 11.2144C0.998509 11.294 0.998509 11.3739 1.00447 11.4534C1.04882 12.0452 1.52977 12.5262 2.49166 13.4881C2.90959 13.906 3.11855 14.1149 3.23828 14.376C3.25491 14.4122 3.27017 14.4491 3.28405 14.4865C3.38394 14.7557 3.38394 15.0512 3.38394 15.6422V15.7512C3.38394 17.2591 3.38394 18.0131 3.85239 18.4815C4.32083 18.95 5.07478 18.95 6.58269 18.95H6.69171C7.28273 18.95 7.57825 18.95 7.84747 19.0499C7.88486 19.0637 7.92172 19.079 7.95797 19.0956C8.21897 19.2154 8.42793 19.4243 8.84585 19.8423C9.80775 20.8042 10.2887 21.2851 10.8805 21.3295C10.96 21.3354 11.04 21.3354 11.1195 21.3295C11.7113 21.2851 12.1922 20.8042 13.1541 19.8423C13.5721 19.4243 13.781 19.2154 14.042 19.0956C14.0783 19.079 14.1151 19.0637 14.1525 19.0499C14.4217 18.95 14.7173 18.95 15.3083 18.95H15.4173C16.9252 18.95 17.6792 18.95 18.1476 18.4815C18.6161 18.0131 18.6161 17.2591 18.6161 15.7512V15.6422C18.6161 15.0512 18.6161 14.7557 18.7159 14.4865C18.7298 14.4491 18.7451 14.4122 18.7617 14.376C18.8815 14.1149 19.0904 13.906 19.5083 13.4881C20.4702 12.5262 20.9512 12.0452 20.9955 11.4534C21.0015 11.3739 21.0015 11.294 20.9955 11.2144C20.9512 10.6226 20.4702 10.1417 19.5083 9.17978C19.0904 8.76186 18.8815 8.55289 18.7617 8.29189C18.7451 8.25564 18.7298 8.21878 18.7159 8.18139C18.6161 7.91217 18.6161 7.61666 18.6161 7.02563V6.91661C18.6161 5.40871 18.6161 4.65476 18.1476 4.18631C17.6792 3.71786 16.9252 3.71786 15.4173 3.71786H15.3083Z" stroke="#EBEBEB" stroke-width="1.5"/>
<path d="M14.5 11.3339C14.5 13.2669 12.933 14.8339 11 14.8339C9.067 14.8339 7.5 13.2669 7.5 11.3339C7.5 9.40093 9.067 7.83392 11 7.83392C12.933 7.83392 14.5 9.40093 14.5 11.3339Z" stroke="#EBEBEB" stroke-width="1.5"/>
</svg>
