<svg width="27" height="28" viewBox="0 0 27 28" fill="none" xmlns="http://www.w3.org/2000/svg">
<path d="M17.6953 14.6947C17.4128 16.0403 15.9096 17.0067 12.9031 18.9394C9.63329 21.0416 7.99837 22.0926 6.67408 21.6877C6.22556 21.5505 5.81246 21.3094 5.46558 20.9822C4.44141 20.0162 4.44141 18.0107 4.44141 13.9998C4.44141 9.98886 4.44141 7.9834 5.46558 7.01738C5.81246 6.69021 6.22556 6.44905 6.67408 6.3119C7.99837 5.90697 9.63329 6.95803 12.9031 9.06015C15.9096 10.9929 17.4128 11.9593 17.6953 13.3049C17.7914 13.7627 17.7914 14.2369 17.6953 14.6947Z" stroke="#EBEBEB" stroke-width="1.66575" stroke-linejoin="round"/>
<path d="M22.2109 6.22632V21.7733" stroke="#EBEBEB" stroke-width="1.66575" stroke-linecap="round"/>
</svg>
