<svg width="50%" height="50%" viewBox="0 0 26 26" fill="none" xmlns="http://www.w3.org/2000/svg">
<path d="M0.600098 5.25059C0.600098 3.05855 0.600098 1.96254 1.28107 1.28156C1.96205 0.600586 3.05807 0.600586 5.2501 0.600586C7.44213 0.600586 8.53814 0.600586 9.21912 1.28156C9.9001 1.96254 9.9001 3.05855 9.9001 5.25059V20.7506C9.9001 22.9426 9.9001 24.0386 9.21912 24.7196C8.53814 25.4006 7.44213 25.4006 5.2501 25.4006C3.05807 25.4006 1.96205 25.4006 1.28107 24.7196C0.600098 24.0386 0.600098 22.9426 0.600098 20.7506V5.25059Z" fill="#BF222A"/>
<path d="M16.1001 5.25059C16.1001 3.05855 16.1001 1.96254 16.7811 1.28156C17.4621 0.600586 18.5581 0.600586 20.7501 0.600586C22.9421 0.600586 24.0381 0.600586 24.7191 1.28156C25.4001 1.96254 25.4001 3.05855 25.4001 5.25059V20.7506C25.4001 22.9426 25.4001 24.0386 24.7191 24.7196C24.0381 25.4006 22.9421 25.4006 20.7501 25.4006C18.5581 25.4006 17.4621 25.4006 16.7811 24.7196C16.1001 24.0386 16.1001 22.9426 16.1001 20.7506V5.25059Z" fill="#BF222A"/>
</svg>
