<svg width="22" height="16" viewBox="0 0 22 16" fill="none" xmlns="http://www.w3.org/2000/svg">
<path d="M13 15L10.1069 6.74791C8.76348 2.91597 8.09177 1 7 1C5.90823 1 5.23652 2.91597 3.89309 6.74791L1 15" stroke="#EBEBEB" stroke-width="1.5" stroke-linecap="round"/>
<path d="M3.5 8H10.5" stroke="#EBEBEB" stroke-width="1.5" stroke-linecap="round"/>
<path d="M20.25 14.5C20.25 14.9142 20.5858 15.25 21 15.25C21.4142 15.25 21.75 14.9142 21.75 14.5H20.25ZM18.8911 6.03078L19.0084 5.29001L18.8911 6.03078ZM20.9692 8.10891L20.2285 8.22624V8.22624L20.9692 8.10891ZM17.1089 6.03078L16.9916 5.29001H16.9916L17.1089 6.03078ZM21 10H21.75C21.75 9.58579 21.4142 9.25 21 9.25V10ZM14.5211 7.20006C14.3555 7.5797 14.5289 8.02176 14.9086 8.18741C15.2882 8.35307 15.7303 8.17959 15.8959 7.79994L14.5211 7.20006ZM20.25 9V14.5H21.75V9H20.25ZM18 6.75C18.4932 6.75 18.6524 6.75233 18.7738 6.77155L19.0084 5.29001C18.7411 5.24767 18.4358 5.25 18 5.25V6.75ZM21.75 9C21.75 8.56416 21.7523 8.25892 21.71 7.99159L20.2285 8.22624C20.2477 8.34758 20.25 8.50684 20.25 9H21.75ZM18.7738 6.77155C19.5226 6.89015 20.1099 7.47743 20.2285 8.22624L21.71 7.99159C21.4897 6.60094 20.3991 5.51027 19.0084 5.29001L18.7738 6.77155ZM18 5.25C17.5642 5.25 17.2589 5.24767 16.9916 5.29001L17.2262 6.77155C17.3476 6.75233 17.5068 6.75 18 6.75V5.25ZM17.5 10.75H21V9.25H17.5V10.75ZM20.25 10V11.5714H21.75V10H20.25ZM20.25 11.5714C20.25 13.0508 19.0508 14.25 17.5714 14.25V15.75C19.8792 15.75 21.75 13.8792 21.75 11.5714H20.25ZM17.5 9.25C15.7051 9.25 14.25 10.7051 14.25 12.5H15.75C15.75 11.5335 16.5335 10.75 17.5 10.75V9.25ZM15.8959 7.79994C16.1308 7.26158 16.6271 6.86644 17.2262 6.77155L16.9916 5.29001C15.8779 5.4664 14.9571 6.20086 14.5211 7.20006L15.8959 7.79994ZM17.5714 14.25C16.5636 14.25 15.75 13.4714 15.75 12.5H14.25C14.25 14.3658 15.8027 15.75 17.5714 15.75V14.25Z" fill="#EBEBEB"/>
</svg>
