<svg width="22" height="22" viewBox="0 0 22 22" fill="none" xmlns="http://www.w3.org/2000/svg">
<path d="M21 11C21 16.5228 16.5228 21 11 21C5.47715 21 1 16.5228 1 11C1 5.47715 5.47715 1 11 1C16.5228 1 21 5.47715 21 11Z" stroke="#EBEBEB" stroke-width="1.5"/>
<path d="M8 5C6.62837 5.53566 5.53566 6.62837 5 8" stroke="#EBEBEB" stroke-width="1.5" stroke-linecap="round"/>
<path d="M13 11C13 9.89543 12.1046 9 11 9C9.89543 9 9 9.89543 9 11C9 12.1046 9.89543 13 11 13C12.1046 13 13 12.1046 13 11Z" stroke="#EBEBEB" stroke-width="1.5"/>
</svg>
