<svg width="20" height="20" viewBox="0 0 20 20" fill="none" xmlns="http://www.w3.org/2000/svg">
<path d="M1.51256 7.48744C2.02513 8 2.85008 8 4.5 8C6.14992 8 6.97487 8 7.48744 7.48744C8 6.97487 8 6.14992 8 4.5C8 2.85008 8 2.02513 7.48744 1.51256C6.97487 1 6.14992 1 4.5 1C2.85008 1 2.02513 1 1.51256 1.51256C1 2.02513 1 2.85008 1 4.5C1 6.14992 1 6.97487 1.51256 7.48744Z" stroke="#EBEBEB" stroke-width="1.5" stroke-linecap="round" stroke-linejoin="round"/>
<path d="M1.51256 18.4874C2.02513 19 2.85008 19 4.5 19C6.14992 19 6.97487 19 7.48744 18.4874C8 17.9749 8 17.1499 8 15.5C8 13.8501 8 13.0251 7.48744 12.5126C6.97487 12 6.14992 12 4.5 12C2.85008 12 2.02513 12 1.51256 12.5126C1 13.0251 1 13.8501 1 15.5C1 17.1499 1 17.9749 1.51256 18.4874Z" stroke="#EBEBEB" stroke-width="1.5" stroke-linecap="round" stroke-linejoin="round"/>
<path d="M13 2H19" stroke="#EBEBEB" stroke-width="1.5" stroke-linecap="round" stroke-linejoin="round"/>
<path d="M13 13H19" stroke="#EBEBEB" stroke-width="1.5" stroke-linecap="round" stroke-linejoin="round"/>
<path d="M13 7H19" stroke="#EBEBEB" stroke-width="1.5" stroke-linecap="round" stroke-linejoin="round"/>
<path d="M13 18H19" stroke="#EBEBEB" stroke-width="1.5" stroke-linecap="round" stroke-linejoin="round"/>
</svg>
