          <svg
            width="104"
            height="29"
            viewBox="0 0 104 29"
            fill="none"
            xmlns="http://www.w3.org/2000/svg"
          >
            <path
              d="M13.4418 5.09669C12.8913 6.56326 12.5746 7.99372 12.5181 9.42574C12.4528 11.0815 12.7347 12.7469 13.4042 14.4813C14.0934 16.2674 15.241 17.7368 15.5318 19.7022C16.2444 24.5185 12.5914 28.6657 7.84826 28.6678C3.51087 28.6697 0 25.1689 0 20.7473C0 18.3511 0.972939 16.0745 2.87771 14.6044C4.80437 13.1174 7.23382 12.7988 9.52316 13.4624C9.84186 13.5547 10.1332 13.8461 10.0322 14.2076C9.93093 14.5687 9.52389 14.6648 9.20515 14.5727C7.81816 14.1705 6.52604 14.6162 5.50254 15.6342C4.3674 16.7633 3.64185 18.5271 3.64185 20.1483C3.64185 23.2857 5.9567 26.1274 9.14844 26.1274C12.3199 26.1274 14.2071 22.7582 13.9177 19.847C13.7474 18.1359 12.5686 16.5966 12.0462 14.9458C11.3582 12.7724 11.165 10.4608 11.4369 8.2088C11.7098 5.94761 12.4522 3.7423 13.6338 1.79305C14 1.18946 14.4148 0.58978 14.8055 0L15.3133 1.43544C16.2939 4.20629 17.9409 6.99919 20.0352 9.04417C21.2583 10.2385 22.5371 11.0695 23.9524 11.9734L19.4678 12.3324C18.3582 11.365 17.2948 10.3458 16.3104 9.24638C15.1276 7.92546 14.2463 6.67188 13.4418 5.09669Z"
              fill="url(#paint0_linear_990_6274)"
            />
            <path
              className="mb-3.5 text-[#F2F2F2] font-notoSans font-medium text-sm"
              d="M31.7145 8.21756C31.9795 8.67531 32.2746 9.23546 32.5999 9.89799C32.9251 10.5605 33.2564 11.2592 33.5937 11.994C33.931 12.7168 34.2622 13.4576 34.5875 14.2165C34.9248 14.9634 35.2319 15.656 35.509 16.2944C35.7861 15.656 36.0872 14.9634 36.4125 14.2165C36.7377 13.4576 37.069 12.7168 37.4063 11.994C37.7435 11.2592 38.0748 10.5605 38.4001 9.89799C38.7253 9.23546 39.0204 8.67531 39.2854 8.21756H41.3453C41.4537 9.13306 41.5561 10.1088 41.6525 11.1448C41.7489 12.1687 41.8332 13.2227 41.9055 14.3068C41.9898 15.3789 42.0621 16.4631 42.1223 17.5593C42.1946 18.6434 42.2548 19.7035 42.303 20.7394H40.0624C40.0142 19.2819 39.954 17.7821 39.8817 16.2402C39.8215 14.6983 39.7251 13.2046 39.5926 11.7591C39.4601 12.0362 39.3035 12.3674 39.1228 12.7529C38.9421 13.1384 38.7494 13.56 38.5446 14.0177C38.3398 14.4634 38.129 14.9272 37.9122 15.4091C37.7074 15.8909 37.5026 16.3607 37.2978 16.8184C37.1051 17.2642 36.9244 17.6858 36.7558 18.0833C36.5871 18.4688 36.4426 18.8 36.3221 19.0771H34.6236C34.5032 18.8 34.3586 18.4627 34.19 18.0652C34.0213 17.6677 33.8346 17.2461 33.6298 16.8004C33.4371 16.3426 33.2323 15.8728 33.0155 15.391C32.8107 14.9091 32.6059 14.4454 32.4011 13.9997C32.1963 13.554 32.0036 13.1384 31.8229 12.7529C31.6422 12.3554 31.4856 12.0241 31.3531 11.7591C31.2206 13.2046 31.1182 14.6983 31.0459 16.2402C30.9857 17.7821 30.9315 19.2819 30.8833 20.7394H28.6427C28.6909 19.7035 28.7451 18.6314 28.8054 17.5231C28.8776 16.4149 28.9499 15.3187 29.0222 14.2346C29.1065 13.1384 29.1969 12.0783 29.2932 11.0544C29.3896 10.0305 29.492 9.08488 29.6004 8.21756H31.7145ZM47.0513 20.7394H44.865V11.2893H47.0513V20.7394ZM47.2862 8.52474C47.2862 8.9343 47.1537 9.25955 46.8887 9.50047C46.6237 9.74139 46.3105 9.86185 45.9491 9.86185C45.5757 9.86185 45.2565 9.74139 44.9915 9.50047C44.7264 9.25955 44.5939 8.9343 44.5939 8.52474C44.5939 8.10313 44.7264 7.77186 44.9915 7.53094C45.2565 7.29002 45.5757 7.16956 45.9491 7.16956C46.3105 7.16956 46.6237 7.29002 46.8887 7.53094C47.1537 7.77186 47.2862 8.10313 47.2862 8.52474ZM51.5572 15.9873C51.5572 16.951 51.786 17.7099 52.2438 18.264C52.7015 18.806 53.334 19.0771 54.1411 19.0771C54.4904 19.0771 54.7855 19.065 55.0264 19.0409C55.2794 19.0048 55.4842 18.9687 55.6408 18.9325V13.5118C55.4481 13.3793 55.1891 13.2588 54.8638 13.1504C54.5506 13.03 54.2133 12.9697 53.8519 12.9697C53.0569 12.9697 52.4727 13.2408 52.0992 13.7828C51.7379 14.3249 51.5572 15.0597 51.5572 15.9873ZM57.8271 20.4503C57.3935 20.5828 56.8454 20.7033 56.1829 20.8117C55.5324 20.9201 54.8457 20.9743 54.123 20.9743C53.3761 20.9743 52.7076 20.8599 52.1173 20.631C51.5271 20.4022 51.0211 20.0769 50.5995 19.6553C50.1899 19.2216 49.8707 18.7037 49.6419 18.1014C49.425 17.487 49.3166 16.8004 49.3166 16.0415C49.3166 15.2946 49.407 14.62 49.5876 14.0177C49.7804 13.4034 50.0574 12.8794 50.4188 12.4457C50.7802 12.0121 51.2199 11.6808 51.7379 11.4519C52.2558 11.211 52.8521 11.0905 53.5267 11.0905C53.9845 11.0905 54.388 11.1448 54.7373 11.2532C55.0867 11.3616 55.3878 11.482 55.6408 11.6146V7.07921L57.8271 6.71783V20.4503ZM60.6044 11.5965C61.026 11.476 61.5741 11.3616 62.2487 11.2532C62.9233 11.1448 63.6701 11.0905 64.4893 11.0905C65.2602 11.0905 65.9047 11.199 66.4227 11.4158C66.9406 11.6206 67.3502 11.9157 67.6514 12.3012C67.9646 12.6746 68.1814 13.1324 68.3019 13.6744C68.4344 14.2045 68.5006 14.7887 68.5006 15.4271V20.7394H66.3143V15.7704C66.3143 15.2645 66.2781 14.8369 66.2058 14.4875C66.1456 14.1262 66.0372 13.837 65.8806 13.6202C65.736 13.3913 65.5313 13.2287 65.2662 13.1324C65.0133 13.0239 64.7001 12.9697 64.3267 12.9697C64.0496 12.9697 63.7605 12.9878 63.4593 13.0239C63.1582 13.0601 62.9353 13.0902 62.7908 13.1143V20.7394H60.6044V11.5965ZM73.3786 20.7394H71.1922V11.2893H73.3786V20.7394ZM73.6135 8.52474C73.6135 8.9343 73.481 9.25955 73.2159 9.50047C72.9509 9.74139 72.6377 9.86185 72.2763 9.86185C71.9029 9.86185 71.5837 9.74139 71.3187 9.50047C71.0537 9.25955 70.9212 8.9343 70.9212 8.52474C70.9212 8.10313 71.0537 7.77186 71.3187 7.53094C71.5837 7.29002 71.9029 7.16956 72.2763 7.16956C72.6377 7.16956 72.9509 7.29002 73.2159 7.53094C73.481 7.77186 73.6135 8.10313 73.6135 8.52474ZM77.8844 15.7704C77.8844 16.698 78.0832 17.3786 78.4807 17.8122C78.8902 18.2339 79.4142 18.4447 80.0527 18.4447C80.402 18.4447 80.7273 18.3965 81.0284 18.3001C81.3416 18.2037 81.5946 18.0893 81.7873 17.9568V13.0601C81.6307 13.0239 81.438 12.9938 81.2091 12.9697C80.9802 12.9336 80.6911 12.9155 80.3418 12.9155C79.5468 12.9155 78.9384 13.1805 78.5168 13.7106C78.0952 14.2285 77.8844 14.9152 77.8844 15.7704ZM83.9737 19.7818C83.9737 21.2875 83.5882 22.3898 82.8173 23.0884C82.0584 23.7871 80.8899 24.1364 79.3119 24.1364C78.7336 24.1364 78.1675 24.0882 77.6134 23.9919C77.0713 23.8955 76.5774 23.769 76.1317 23.6124L76.5292 21.7513C76.9026 21.9079 77.3243 22.0344 77.794 22.1308C78.2759 22.2271 78.7939 22.2753 79.348 22.2753C80.2274 22.2753 80.8537 22.0946 81.2272 21.7332C81.6006 21.3719 81.7873 20.8358 81.7873 20.1251V19.7637C81.5705 19.8721 81.2814 19.9805 80.92 20.089C80.5707 20.1974 80.1671 20.2516 79.7094 20.2516C79.1071 20.2516 78.553 20.1552 78.047 19.9625C77.5531 19.7697 77.1255 19.4867 76.7641 19.1132C76.4148 18.7398 76.1377 18.276 75.9329 17.7219C75.7402 17.1557 75.6438 16.5053 75.6438 15.7704C75.6438 15.0838 75.7462 14.4514 75.951 13.8732C76.1678 13.295 76.475 12.8011 76.8725 12.3915C77.2821 11.982 77.776 11.6627 78.3542 11.4339C78.9324 11.205 79.5889 11.0905 80.3237 11.0905C81.0344 11.0905 81.709 11.1448 82.3475 11.2532C82.9859 11.3616 83.528 11.476 83.9737 11.5965V19.7818ZM86.7552 20.7394V7.07921L88.9415 6.71783V11.3977C89.1825 11.3134 89.4595 11.2411 89.7727 11.1809C90.098 11.1207 90.4172 11.0905 90.7304 11.0905C91.4893 11.0905 92.1157 11.199 92.6096 11.4158C93.1155 11.6206 93.519 11.9157 93.8202 12.3012C94.1214 12.6746 94.3322 13.1263 94.4526 13.6564C94.5851 14.1864 94.6514 14.7766 94.6514 15.4271V20.7394H92.465V15.7704C92.465 15.2645 92.4289 14.8369 92.3566 14.4875C92.2964 14.1262 92.188 13.837 92.0314 13.6202C91.8868 13.3913 91.688 13.2287 91.4351 13.1324C91.1821 13.0239 90.8689 12.9697 90.4955 12.9697C90.2064 12.9697 89.9113 12.9998 89.6101 13.0601C89.309 13.1203 89.0861 13.1745 88.9415 13.2227V20.7394H86.7552ZM97.1636 8.79577L99.3499 8.43439V11.2893H102.711V13.1143H99.3499V16.963C99.3499 17.7219 99.4704 18.264 99.7113 18.5892C99.9522 18.9145 100.362 19.0771 100.94 19.0771C101.338 19.0771 101.687 19.0349 101.988 18.9506C102.301 18.8663 102.548 18.788 102.729 18.7157L103.09 20.4503C102.837 20.5588 102.506 20.6672 102.096 20.7756C101.687 20.896 101.205 20.9563 100.651 20.9563C99.9763 20.9563 99.4101 20.8659 98.9524 20.6852C98.5067 20.5045 98.1513 20.2456 97.8863 19.9083C97.6213 19.5589 97.4346 19.1433 97.3262 18.6615C97.2178 18.1676 97.1636 17.6075 97.1636 16.9811V8.79577Z"
              fill="#FCEEEE"
            />
            <defs>
              <linearGradient
                id="paint0_linear_990_6274"
                x1="0"
                y1="0"
                x2="28.211"
                y2="23.5707"
                gradientUnits="userSpaceOnUse"
              >
                <stop stopColor="#E5313A" />
                <stop offset="1" stopColor="#CF2D34" />
              </linearGradient>
            </defs>
          </svg>