<svg width="75" height="89" viewBox="0 0 75 89" fill="none" xmlns="http://www.w3.org/2000/svg">
<path d="M42.0098 15.6751C40.2891 20.1856 39.2996 24.5851 39.1229 28.9893C38.9187 34.0816 39.7999 39.2038 41.892 44.5379C44.0463 50.0312 47.6327 54.5503 48.5415 60.595C50.7687 75.4078 39.3518 88.1628 24.5282 88.1691C10.9725 88.175 0 77.4081 0 63.8092C0 56.4395 3.04073 49.4379 8.9937 44.9165C15.0151 40.3433 22.6079 39.3632 29.7628 41.4043C30.7588 41.6881 31.6694 42.5844 31.3535 43.6962C31.0372 44.8068 29.765 45.1023 28.7689 44.819C24.4341 43.582 20.3959 44.9529 17.1971 48.0838C13.6495 51.5563 11.3819 56.981 11.3819 61.9669C11.3819 71.6161 18.6165 80.3562 28.5916 80.3562C38.5035 80.3562 44.4015 69.994 43.4969 61.0405C42.9649 55.7779 39.2808 51.0436 37.6481 45.9664C35.4979 39.2822 34.8941 32.1727 35.7437 25.2466C36.5965 18.2922 38.917 11.5096 42.6098 5.5146C43.7541 3.65824 45.0506 1.8139 46.2715 0L47.8588 4.41475C50.9234 12.9366 56.0708 21.5263 62.616 27.8158C66.4387 31.489 70.4352 34.0447 74.8584 36.8248L60.8427 37.929C57.3749 34.9537 54.0515 31.8189 50.9749 28.4377C47.2782 24.3751 44.5241 20.5197 42.0098 15.6751Z" fill="url(#paint0_linear_505_7874)"/>
<defs>
<linearGradient id="paint0_linear_505_7874" x1="0" y1="0" x2="87.0014" y2="73.8669" gradientUnits="userSpaceOnUse">
<stop stop-color="#E5313A"/>
<stop offset="1" stop-color="#CF2D34"/>
</linearGradient>
</defs>
</svg>
