<svg width="25" height="24" viewBox="0 0 25 24" fill="none" xmlns="http://www.w3.org/2000/svg">
<path d="M9.39466 4.82633L3.57212 9.92134C3.07281 10.3583 3.40759 11.1343 4.09539 11.1343C4.5156 11.1343 4.85624 11.4489 4.85624 11.8371V15.0806C4.85624 17.871 4.85624 19.2662 5.79477 20.1331C6.7333 21 8.24383 21 11.2649 21H13.4011C16.4222 21 17.9327 21 18.8712 20.1331C19.8098 19.2662 19.8098 17.871 19.8098 15.0806V11.8371C19.8098 11.4489 20.1504 11.1343 20.5706 11.1343C21.2584 11.1343 21.5932 10.3583 21.0939 9.92134L15.2714 4.82633C13.8799 3.60878 13.1842 3 12.333 3C11.4818 3 10.7861 3.60878 9.39466 4.82633Z" stroke="#A09F9F" stroke-width="1.5" stroke-linecap="round" stroke-linejoin="round"/>
<path d="M12.333 16H12.342" stroke="#A09F9F" stroke-width="2" stroke-linecap="round" stroke-linejoin="round"/>
</svg>
